<mxfile host="app.diagrams.net" modified="2021-09-12T01:08:46.870Z" agent="5.0 (Macintosh; Intel Mac OS X 10_15_7) AppleWebKit/537.36 (KHTML, like Gecko) Chrome/93.0.4577.63 Safari/537.36" etag="qnj9axyX_m8IYf_No01Z" version="15.1.4" type="github">
  <diagram id="zTNhsmYmjn6xe1Ebr3OD" name="Page-1">
    <mxGraphModel dx="1186" dy="589" grid="1" gridSize="10" guides="1" tooltips="1" connect="1" arrows="1" fold="1" page="1" pageScale="1" pageWidth="827" pageHeight="1169" math="0" shadow="0">
      <root>
        <mxCell id="0" />
        <mxCell id="1" parent="0" />
        <mxCell id="UJhI4HKnFpjduF7_UGOD-6" value="App.js" style="swimlane;" vertex="1" parent="1">
          <mxGeometry x="240" y="60" width="310" height="210" as="geometry" />
        </mxCell>
      </root>
    </mxGraphModel>
  </diagram>
</mxfile>
